<mxfile host="app.diagrams.net" agent="Mozilla/5.0 (Windows NT 10.0; Win64; x64) AppleWebKit/537.36 (KHTML, like Gecko) Chrome/133.0.0.0 Safari/537.36 Edg/133.0.0.0" version="26.0.16">
  <diagram name="Страница — 1" id="scS0GT-rFz-xxLQWBTLH">
    <mxGraphModel dx="1042" dy="578" grid="1" gridSize="10" guides="1" tooltips="1" connect="1" arrows="1" fold="1" page="1" pageScale="1" pageWidth="827" pageHeight="1169" math="0" shadow="0">
      <root>
        <mxCell id="0" />
        <mxCell id="1" parent="0" />
        <mxCell id="h2E8nRczxpqR-HWiFHpD-1" value="Actor" style="shape=umlActor;verticalLabelPosition=bottom;verticalAlign=top;html=1;outlineConnect=0;" vertex="1" parent="1">
          <mxGeometry x="40" y="160" width="30" height="60" as="geometry" />
        </mxCell>
        <mxCell id="h2E8nRczxpqR-HWiFHpD-25" style="edgeStyle=orthogonalEdgeStyle;rounded=0;orthogonalLoop=1;jettySize=auto;html=1;entryX=0;entryY=0.5;entryDx=0;entryDy=0;" edge="1" parent="1" source="h2E8nRczxpqR-HWiFHpD-3" target="h2E8nRczxpqR-HWiFHpD-23">
          <mxGeometry relative="1" as="geometry">
            <mxPoint x="360" y="200" as="targetPoint" />
          </mxGeometry>
        </mxCell>
        <mxCell id="h2E8nRczxpqR-HWiFHpD-3" value="API gateway" style="rounded=0;whiteSpace=wrap;html=1;shape=ellipse;perimeter=ellipsePerimeter;aspect=fixed;" vertex="1" parent="1">
          <mxGeometry x="170" y="160" width="160" height="80" as="geometry" />
        </mxCell>
        <mxCell id="h2E8nRczxpqR-HWiFHpD-4" value="" style="shape=datastore;whiteSpace=wrap;html=1;" vertex="1" parent="1">
          <mxGeometry x="630" y="125" width="60" height="60" as="geometry" />
        </mxCell>
        <mxCell id="h2E8nRczxpqR-HWiFHpD-5" value="images" style="shape=datastore;whiteSpace=wrap;html=1;" vertex="1" parent="1">
          <mxGeometry x="410" y="460" width="60" height="60" as="geometry" />
        </mxCell>
        <mxCell id="h2E8nRczxpqR-HWiFHpD-8" value="" style="edgeStyle=orthogonalEdgeStyle;rounded=0;orthogonalLoop=1;jettySize=auto;html=1;" edge="1" parent="1" source="h2E8nRczxpqR-HWiFHpD-6" target="h2E8nRczxpqR-HWiFHpD-3">
          <mxGeometry relative="1" as="geometry" />
        </mxCell>
        <mxCell id="h2E8nRczxpqR-HWiFHpD-6" value="" style="ellipse;html=1;shape=startState;fillColor=#000000;strokeColor=#ff0000;" vertex="1" parent="1">
          <mxGeometry x="60" y="185" width="30" height="30" as="geometry" />
        </mxCell>
        <mxCell id="h2E8nRczxpqR-HWiFHpD-7" value="" style="edgeStyle=orthogonalEdgeStyle;html=1;verticalAlign=bottom;endArrow=open;endSize=8;strokeColor=#ff0000;rounded=0;entryX=0;entryY=0.5;entryDx=0;entryDy=0;" edge="1" source="h2E8nRczxpqR-HWiFHpD-6" parent="1" target="h2E8nRczxpqR-HWiFHpD-3">
          <mxGeometry relative="1" as="geometry">
            <mxPoint x="125" y="280" as="targetPoint" />
          </mxGeometry>
        </mxCell>
        <mxCell id="h2E8nRczxpqR-HWiFHpD-9" value="WebSoket" style="whiteSpace=wrap;html=1;aspect=fixed;" vertex="1" parent="1">
          <mxGeometry x="160" y="115" width="70" height="70" as="geometry" />
        </mxCell>
        <mxCell id="h2E8nRczxpqR-HWiFHpD-10" value="" style="endArrow=classic;html=1;rounded=0;exitX=1;exitY=0;exitDx=0;exitDy=0;entryX=0;entryY=0.5;entryDx=0;entryDy=0;" edge="1" parent="1" source="h2E8nRczxpqR-HWiFHpD-3" target="h2E8nRczxpqR-HWiFHpD-11">
          <mxGeometry width="50" height="50" relative="1" as="geometry">
            <mxPoint x="390" y="330" as="sourcePoint" />
            <mxPoint x="380" y="110" as="targetPoint" />
            <Array as="points" />
          </mxGeometry>
        </mxCell>
        <mxCell id="h2E8nRczxpqR-HWiFHpD-11" value="User Service" style="rounded=0;whiteSpace=wrap;html=1;shape=hexagon;perimeter=hexagonPerimeter2;fixedSize=1;" vertex="1" parent="1">
          <mxGeometry x="380" y="85" width="100" height="60" as="geometry" />
        </mxCell>
        <mxCell id="h2E8nRczxpqR-HWiFHpD-12" value="Rest API" style="whiteSpace=wrap;html=1;aspect=fixed;" vertex="1" parent="1">
          <mxGeometry x="360" y="60" width="40" height="40" as="geometry" />
        </mxCell>
        <mxCell id="h2E8nRczxpqR-HWiFHpD-13" value="" style="endArrow=classic;html=1;rounded=0;exitX=1;exitY=0.5;exitDx=0;exitDy=0;entryX=0;entryY=0.5;entryDx=0;entryDy=0;" edge="1" parent="1" source="h2E8nRczxpqR-HWiFHpD-11" target="h2E8nRczxpqR-HWiFHpD-4">
          <mxGeometry width="50" height="50" relative="1" as="geometry">
            <mxPoint x="500" y="100" as="sourcePoint" />
            <mxPoint x="600" y="103.84615384615381" as="targetPoint" />
            <Array as="points" />
          </mxGeometry>
        </mxCell>
        <mxCell id="h2E8nRczxpqR-HWiFHpD-16" value="Users" style="text;html=1;align=center;verticalAlign=middle;resizable=0;points=[];autosize=1;strokeColor=none;fillColor=none;" vertex="1" parent="1">
          <mxGeometry x="640" y="145" width="50" height="30" as="geometry" />
        </mxCell>
        <mxCell id="h2E8nRczxpqR-HWiFHpD-37" value="" style="edgeStyle=orthogonalEdgeStyle;rounded=0;orthogonalLoop=1;jettySize=auto;html=1;" edge="1" parent="1" source="h2E8nRczxpqR-HWiFHpD-17" target="h2E8nRczxpqR-HWiFHpD-34">
          <mxGeometry relative="1" as="geometry">
            <Array as="points">
              <mxPoint x="305" y="370" />
            </Array>
          </mxGeometry>
        </mxCell>
        <mxCell id="h2E8nRczxpqR-HWiFHpD-39" value="" style="edgeStyle=orthogonalEdgeStyle;rounded=0;orthogonalLoop=1;jettySize=auto;html=1;" edge="1" parent="1" source="h2E8nRczxpqR-HWiFHpD-17" target="h2E8nRczxpqR-HWiFHpD-38">
          <mxGeometry relative="1" as="geometry">
            <Array as="points">
              <mxPoint x="450" y="280" />
              <mxPoint x="720" y="280" />
            </Array>
          </mxGeometry>
        </mxCell>
        <mxCell id="h2E8nRczxpqR-HWiFHpD-64" style="edgeStyle=orthogonalEdgeStyle;rounded=0;orthogonalLoop=1;jettySize=auto;html=1;entryX=0;entryY=0.75;entryDx=0;entryDy=0;entryPerimeter=0;" edge="1" parent="1" source="h2E8nRczxpqR-HWiFHpD-17" target="h2E8nRczxpqR-HWiFHpD-48">
          <mxGeometry relative="1" as="geometry">
            <mxPoint x="160" y="610" as="targetPoint" />
            <Array as="points">
              <mxPoint x="160" y="490" />
              <mxPoint x="161" y="490" />
              <mxPoint x="161" y="600" />
            </Array>
          </mxGeometry>
        </mxCell>
        <mxCell id="h2E8nRczxpqR-HWiFHpD-17" value="Post service" style="rounded=0;whiteSpace=wrap;html=1;shape=hexagon;perimeter=hexagonPerimeter2;fixedSize=1;" vertex="1" parent="1">
          <mxGeometry x="110" y="310" width="100" height="60" as="geometry" />
        </mxCell>
        <mxCell id="h2E8nRczxpqR-HWiFHpD-18" value="Rest API" style="whiteSpace=wrap;html=1;aspect=fixed;" vertex="1" parent="1">
          <mxGeometry x="90" y="290" width="40" height="40" as="geometry" />
        </mxCell>
        <mxCell id="h2E8nRczxpqR-HWiFHpD-47" style="edgeStyle=orthogonalEdgeStyle;rounded=0;orthogonalLoop=1;jettySize=auto;html=1;entryX=0.5;entryY=1;entryDx=0;entryDy=0;" edge="1" parent="1" source="h2E8nRczxpqR-HWiFHpD-23" target="h2E8nRczxpqR-HWiFHpD-4">
          <mxGeometry relative="1" as="geometry" />
        </mxCell>
        <mxCell id="h2E8nRczxpqR-HWiFHpD-23" value="Auth Service" style="rounded=0;whiteSpace=wrap;html=1;shape=hexagon;perimeter=hexagonPerimeter2;fixedSize=1;" vertex="1" parent="1">
          <mxGeometry x="420" y="170" width="100" height="60" as="geometry" />
        </mxCell>
        <mxCell id="h2E8nRczxpqR-HWiFHpD-24" value="Rest API" style="whiteSpace=wrap;html=1;aspect=fixed;" vertex="1" parent="1">
          <mxGeometry x="400" y="150" width="40" height="40" as="geometry" />
        </mxCell>
        <mxCell id="h2E8nRczxpqR-HWiFHpD-35" value="" style="edgeStyle=orthogonalEdgeStyle;rounded=0;orthogonalLoop=1;jettySize=auto;html=1;" edge="1" parent="1" source="h2E8nRczxpqR-HWiFHpD-31" target="h2E8nRczxpqR-HWiFHpD-5">
          <mxGeometry relative="1" as="geometry" />
        </mxCell>
        <mxCell id="h2E8nRczxpqR-HWiFHpD-31" value="image Service" style="rounded=0;whiteSpace=wrap;html=1;shape=hexagon;perimeter=hexagonPerimeter2;fixedSize=1;" vertex="1" parent="1">
          <mxGeometry x="390" y="380" width="100" height="60" as="geometry" />
        </mxCell>
        <mxCell id="h2E8nRczxpqR-HWiFHpD-65" style="edgeStyle=orthogonalEdgeStyle;rounded=0;orthogonalLoop=1;jettySize=auto;html=1;exitX=1;exitY=0.5;exitDx=0;exitDy=0;exitPerimeter=0;entryX=0;entryY=0.5;entryDx=0;entryDy=0;" edge="1" parent="1" source="h2E8nRczxpqR-HWiFHpD-34" target="h2E8nRczxpqR-HWiFHpD-31">
          <mxGeometry relative="1" as="geometry" />
        </mxCell>
        <mxCell id="h2E8nRczxpqR-HWiFHpD-34" value="kafka" style="strokeWidth=2;html=1;shape=mxgraph.flowchart.direct_data;whiteSpace=wrap;" vertex="1" parent="1">
          <mxGeometry x="314" y="380" width="56" height="60" as="geometry" />
        </mxCell>
        <mxCell id="h2E8nRczxpqR-HWiFHpD-38" value="Posts" style="shape=datastore;whiteSpace=wrap;html=1;" vertex="1" parent="1">
          <mxGeometry x="690" y="125" width="60" height="60" as="geometry" />
        </mxCell>
        <mxCell id="h2E8nRczxpqR-HWiFHpD-40" value="pub" style="text;html=1;align=center;verticalAlign=middle;resizable=0;points=[];autosize=1;strokeColor=none;fillColor=none;" vertex="1" parent="1">
          <mxGeometry x="200" y="370" width="40" height="30" as="geometry" />
        </mxCell>
        <mxCell id="h2E8nRczxpqR-HWiFHpD-46" value="sub" style="text;html=1;align=center;verticalAlign=middle;resizable=0;points=[];autosize=1;strokeColor=none;fillColor=none;" vertex="1" parent="1">
          <mxGeometry x="370" y="370" width="40" height="30" as="geometry" />
        </mxCell>
        <mxCell id="h2E8nRczxpqR-HWiFHpD-57" style="edgeStyle=orthogonalEdgeStyle;rounded=0;orthogonalLoop=1;jettySize=auto;html=1;entryX=0.5;entryY=1;entryDx=0;entryDy=0;" edge="1" parent="1" source="h2E8nRczxpqR-HWiFHpD-48" target="h2E8nRczxpqR-HWiFHpD-51">
          <mxGeometry relative="1" as="geometry" />
        </mxCell>
        <mxCell id="h2E8nRczxpqR-HWiFHpD-48" value="kafka" style="strokeWidth=2;html=1;shape=mxgraph.flowchart.direct_data;whiteSpace=wrap;rotation=0;" vertex="1" parent="1">
          <mxGeometry x="640" y="555" width="72.5" height="60" as="geometry" />
        </mxCell>
        <mxCell id="h2E8nRczxpqR-HWiFHpD-51" value="notify service" style="rounded=0;whiteSpace=wrap;html=1;shape=hexagon;perimeter=hexagonPerimeter2;fixedSize=1;" vertex="1" parent="1">
          <mxGeometry x="626.25" y="450" width="100" height="60" as="geometry" />
        </mxCell>
        <mxCell id="h2E8nRczxpqR-HWiFHpD-58" style="edgeStyle=orthogonalEdgeStyle;rounded=0;orthogonalLoop=1;jettySize=auto;html=1;entryX=0.85;entryY=0.95;entryDx=0;entryDy=0;entryPerimeter=0;exitX=1;exitY=0.5;exitDx=0;exitDy=0;" edge="1" parent="1" source="h2E8nRczxpqR-HWiFHpD-51" target="h2E8nRczxpqR-HWiFHpD-38">
          <mxGeometry relative="1" as="geometry" />
        </mxCell>
        <mxCell id="h2E8nRczxpqR-HWiFHpD-59" value="pub" style="text;html=1;align=center;verticalAlign=middle;resizable=0;points=[];autosize=1;strokeColor=none;fillColor=none;" vertex="1" parent="1">
          <mxGeometry x="580" y="555" width="40" height="30" as="geometry" />
        </mxCell>
        <mxCell id="h2E8nRczxpqR-HWiFHpD-60" value="sub" style="text;html=1;align=center;verticalAlign=middle;resizable=0;points=[];autosize=1;strokeColor=none;fillColor=none;" vertex="1" parent="1">
          <mxGeometry x="680" y="510" width="40" height="30" as="geometry" />
        </mxCell>
        <mxCell id="h2E8nRczxpqR-HWiFHpD-61" style="edgeStyle=orthogonalEdgeStyle;rounded=0;orthogonalLoop=1;jettySize=auto;html=1;exitX=0;exitY=1;exitDx=0;exitDy=0;entryX=0.84;entryY=0.123;entryDx=0;entryDy=0;entryPerimeter=0;" edge="1" parent="1" source="h2E8nRczxpqR-HWiFHpD-3" target="h2E8nRczxpqR-HWiFHpD-17">
          <mxGeometry relative="1" as="geometry" />
        </mxCell>
        <mxCell id="h2E8nRczxpqR-HWiFHpD-66" value="read" style="text;html=1;align=center;verticalAlign=middle;resizable=0;points=[];autosize=1;strokeColor=none;fillColor=none;" vertex="1" parent="1">
          <mxGeometry x="730" y="185" width="50" height="30" as="geometry" />
        </mxCell>
        <mxCell id="h2E8nRczxpqR-HWiFHpD-67" value="read" style="text;html=1;align=center;verticalAlign=middle;resizable=0;points=[];autosize=1;strokeColor=none;fillColor=none;" vertex="1" parent="1">
          <mxGeometry x="610" y="185" width="50" height="30" as="geometry" />
        </mxCell>
        <mxCell id="h2E8nRczxpqR-HWiFHpD-68" value="" style="shape=image;html=1;verticalLabelPosition=bottom;verticalAlign=top;imageAspect=1;aspect=fixed;image=img/clipart/Gear_128x128.png" vertex="1" parent="1">
          <mxGeometry x="318" y="420" width="52" height="61" as="geometry" />
        </mxCell>
        <mxCell id="h2E8nRczxpqR-HWiFHpD-69" value="" style="shape=image;html=1;verticalLabelPosition=bottom;verticalAlign=top;imageAspect=1;aspect=fixed;image=img/clipart/Gear_128x128.png" vertex="1" parent="1">
          <mxGeometry x="668" y="80" width="52" height="61" as="geometry" />
        </mxCell>
        <mxCell id="h2E8nRczxpqR-HWiFHpD-70" value="" style="shape=image;html=1;verticalLabelPosition=bottom;verticalAlign=top;imageAspect=1;aspect=fixed;image=img/clipart/Gear_128x128.png" vertex="1" parent="1">
          <mxGeometry x="600" y="494.5" width="52" height="61" as="geometry" />
        </mxCell>
      </root>
    </mxGraphModel>
  </diagram>
</mxfile>
